<svg width="180" height="184" viewBox="0 0 180 184" fill="none" xmlns="http://www.w3.org/2000/svg">
<path d="M79.2097 161.3C79.2097 165.458 75.7249 168.828 71.4262 168.828C67.1276 168.828 63.6428 165.458 63.6428 161.3C63.6428 157.142 67.1276 153.771 71.4262 153.771C75.7249 153.771 79.2097 157.142 79.2097 161.3ZM41.9028 44.609C41.9028 48.7669 38.418 52.1375 34.1193 52.1375C29.8206 52.1375 26.3358 48.7669 26.3358 44.609C26.3358 40.4512 29.8206 37.0806 34.1193 37.0806C38.418 37.0806 41.9028 40.4512 41.9028 44.609V44.609ZM175.027 70.1519C175.027 74.3097 171.542 77.6803 167.243 77.6803C162.945 77.6803 159.46 74.3097 159.46 70.1519C159.46 65.9941 162.945 62.6235 167.243 62.6235C171.542 62.6235 175.027 65.9941 175.027 70.1519V70.1519ZM87.3249 183.387C82.0831 181.856 77.09 176.803 73.0949 168.987C71.5637 165.991 71.269 165.61 70.4789 165.604C69.0995 165.593 66.8016 164.524 66.0103 163.525C64.1957 161.233 64.6803 158.408 66.6613 156.379C67.2294 155.797 67.3184 155.082 67.3184 154.791C67.3184 154.5 66.9359 152.893 66.4684 151.221C65.4528 147.588 63.5892 139.101 63.2688 136.649C63.143 135.687 62.9351 134.747 62.8067 134.56C62.6528 134.336 60.8513 134.807 57.5245 135.941C48.0139 139.183 38.15 141.687 28.9021 143.208C24.6115 143.914 13.5862 143.997 10.7578 143.344C4.26014 141.846 0.742522 138.565 0.350488 133.638C0.133636 130.912 0.85459 128.333 2.91317 124.469C5.63157 119.366 8.82226 115.31 14.7971 109.359C19.6797 104.496 29.4145 96.4103 34.8055 92.7397L35.9722 91.9452L34.2707 90.7092C12.1256 74.6218 -0.326933 59.8644 0.341365 50.5C0.903847 42.6182 9.80047 39.1183 25.3949 40.6439C28.881 40.9849 28.9053 40.9826 29.9398 40.1998C33.0942 37.8129 37.7597 38.6295 39.7794 41.9219C40.4854 43.0728 40.8509 43.3239 42.3483 43.6865C45.2327 44.3849 53.59 46.8723 58.1569 48.3915C60.5131 49.1754 62.5216 49.7443 62.6201 49.6557C62.7186 49.5671 63.1125 47.8147 63.4954 45.7615C67.3703 24.9842 73.8116 9.93003 81.5581 3.54683C85.5247 0.278278 90.059 -0.550146 94.1821 1.2404C98.0097 2.90264 102.518 7.79892 106.003 14.0771C108.471 18.5242 111.819 27.7141 113.897 35.7472C114.97 39.8951 116.561 47.586 116.561 48.626C116.561 49.0361 116.716 49.458 116.906 49.5636C117.096 49.6692 119.572 48.9831 122.407 48.0391C147.686 39.6224 168.162 38.0421 176.105 43.8949C181.332 47.7466 180.806 55.4632 174.734 63.9986C173.697 65.4564 173.481 66.0062 173.689 66.6522C173.833 67.1004 173.964 68.4678 173.981 69.6907C174.008 71.6809 173.905 72.0393 173.001 73.1042C171.573 74.7867 169.363 75.6061 166.943 75.3504C165.141 75.1598 165.01 75.1959 164.119 76.1282C162.45 77.874 153.189 85.5513 148.877 88.762C146.566 90.4834 144.675 92.0145 144.675 92.1644C144.675 92.3143 145.853 93.2997 147.294 94.3543C151.484 97.4217 158.503 103.203 161.674 106.2C176.262 119.986 181.973 130.913 178.206 137.836C174.526 144.6 161.75 145.785 141.532 141.237C136.377 140.077 124.114 136.484 119.728 134.847C118.301 134.315 117.02 133.988 116.883 134.121C116.746 134.253 116.288 136.27 115.866 138.602C112.192 158.903 106.007 173.694 98.5123 180.099C97.3737 181.073 95.6521 182.229 94.6865 182.669C92.4919 183.669 89.3424 183.976 87.3249 183.387ZM92.0267 179.267C100.453 177.016 107.664 161.938 111.843 137.829C112.321 135.072 112.595 132.714 112.454 132.59C112.312 132.465 109.917 131.5 107.132 130.444C104.346 129.387 99.3639 127.265 96.0594 125.727L90.0511 122.931L84.3599 125.548C79.5323 127.767 74.1522 129.967 68.2788 132.122C67.1373 132.541 66.9694 132.735 66.9706 133.639C66.9725 135.074 67.8192 139.663 69.2479 145.982C71.0522 153.962 71.0876 154.048 72.8119 154.62C74.7012 155.248 75.7939 155.958 76.6411 157.654C77.511 159.394 77.4544 161.504 76.0744 163.378C74.9237 164.941 74.8907 164.802 77.5327 169.536C80.7133 175.236 84.0013 178.373 87.9235 179.45C89.2718 179.82 90.0921 179.783 92.0267 179.267V179.267ZM167.314 140.153C169.934 139.689 172.782 138.29 173.878 136.929C175.297 135.168 175.691 133.794 175.503 131.257C175.116 126.007 170.257 119.018 160.827 110.147C155.302 104.95 141.659 94.5275 140.657 94.7379C140.368 94.7986 137.932 96.3331 135.244 98.148C132.555 99.9629 127.99 102.871 125.098 104.611L119.841 107.775L119.42 113.772C119.188 117.07 118.676 122.042 118.281 124.82C117.886 127.598 117.634 129.936 117.722 130.014C118.128 130.379 127.128 133.476 132.626 135.142C147.864 139.76 159.792 141.483 167.314 140.153V140.153ZM25.9956 139.849C34.844 138.803 46.5159 135.861 58.4251 131.673C61.0487 130.751 62.0787 130.24 62.0757 129.863C62.0738 129.573 61.7651 127.128 61.3906 124.428C61.016 121.727 60.5195 116.694 60.2872 113.241L59.8649 106.964L57.9165 105.93C54.5189 104.127 46.6604 99.3244 43.2016 96.9369C41.3662 95.6699 39.7387 94.6333 39.5849 94.6333C39.2077 94.6333 37.2492 96.0155 32.0453 99.9542C26.6694 104.023 18.5571 111.111 14.9515 114.89C2.46596 127.976 1.47887 137.308 12.3307 139.668C14.8176 140.208 22.1328 140.306 25.9956 139.849V139.849ZM72.8288 126.315C75.4645 125.267 79.3153 123.619 81.3861 122.653L85.1513 120.896L81.7354 119.296C77.5071 117.316 71.4088 114.158 68.266 112.321C64.6322 110.197 64.8728 110.079 64.8798 113.993C64.8859 117.431 65.2208 121.173 65.9528 125.986C66.4283 129.112 65.8654 129.085 72.8288 126.315V126.315ZM113.573 126.903C114.838 118.379 115.461 110.65 114.883 110.65C114.676 110.65 114.416 110.782 114.305 110.944C113.977 111.421 103.449 116.958 99.0161 118.984C96.7615 120.014 94.9148 120.941 94.9125 121.042C94.9017 121.516 111.596 128.534 112.762 128.546C113.182 128.55 113.391 128.127 113.573 126.903V126.903ZM96.1161 115.626C101.825 112.867 109.648 108.725 113.556 106.391L115.408 105.286L115.635 101.48C115.916 96.7824 115.861 80.6694 115.559 79.4522C115.375 78.7059 114.379 78.0281 109.446 75.2909C106.204 73.4924 103.511 72.021 103.461 72.021C103.411 72.021 101.584 71.1259 99.4011 70.0319C92.0808 66.3631 90.7424 65.7398 90.1849 65.7398C88.8726 65.7398 71.9518 74.2317 65.8582 77.9485C64.3441 78.872 64.2064 79.0677 63.9936 80.5997C63.5746 83.6155 63.9529 104.448 64.4407 105.216C64.8292 105.829 71.0848 109.524 75.6164 111.818C81.9774 115.039 89.2283 118.487 89.6552 118.494C89.9353 118.498 92.8427 117.208 96.1161 115.626ZM86.6675 100.989C80.502 99.0031 77.6134 92.636 80.5452 87.4939C81.914 85.0931 84.12 83.5467 87.1822 82.8413C89.8592 82.2245 91.54 82.4167 94.452 83.6725C100.598 86.3231 102.262 93.8412 97.7287 98.4839C95.2597 101.013 90.2584 102.145 86.6675 100.989V100.989ZM59.2859 91.9452C59.2859 83.6028 59.1949 81.4527 58.8494 81.6311C56.1163 83.0422 43.0463 91.7066 43.0463 92.1073C43.0463 92.2483 44.0558 93.0509 45.2897 93.891C48.2526 95.9083 58.6898 102.416 59.024 102.455C59.1681 102.471 59.2859 97.742 59.2859 91.9452V91.9452ZM127.595 98.1664C131.367 95.7914 135.024 93.3903 135.722 92.8308C136.966 91.8338 136.978 91.8036 136.293 91.3256C130.374 87.192 121.317 81.4428 120.725 81.4428C120.558 81.4428 120.378 86.1773 120.325 91.9639C120.271 97.7505 120.343 102.485 120.483 102.485C120.623 102.485 123.823 100.542 127.595 98.1664V98.1664ZM48.052 83.8903C52.2565 81.1773 56.6464 78.4253 57.8074 77.7749L59.9182 76.5922L60.1407 73.1289C60.4682 68.0292 60.9912 62.9317 61.6236 58.6735C62.4638 53.0171 62.6505 53.5947 59.6352 52.5227C56.2333 51.3134 45.4529 48.0779 42.4633 47.369L40.1341 46.8167L39.0561 47.9208C36.9244 50.1041 33.5931 50.6828 30.9236 49.3336C29.5241 48.6263 28.1288 46.8572 27.722 45.2743C27.5194 44.4861 27.3545 44.4247 24.8846 44.2165C20.3712 43.8362 13.6452 44.2087 11.304 44.9687C0.111825 48.6018 3.47278 59.5265 20.5038 74.8729C23.6823 77.737 28.6402 81.8398 31.5214 83.9902C39.2072 89.7268 39.0897 89.6528 39.8024 89.2041C40.1351 88.9946 43.8474 86.6034 48.052 83.8903ZM144.659 86.605C150.023 82.748 153.167 80.2501 158.036 75.9745L161.967 72.5221L161.748 71.0325C161.435 68.9135 161.834 67.0871 163.079 65.8116C164.523 64.3323 165.884 63.73 168.013 63.8737L169.82 63.9956L171.471 61.8056C175.156 56.9159 176.505 51.7919 174.91 48.742C173.983 46.9698 173.137 46.234 170.868 45.2239C165.24 42.7192 153.828 43.2865 139.785 46.7691C133.692 48.2803 118.339 53.0443 117.694 53.624C117.591 53.7171 117.848 56.3046 118.265 59.374C118.969 64.544 119.687 72.4863 119.699 75.2293C119.704 76.3483 119.83 76.4699 122.76 78.1949C127.846 81.1885 134.384 85.3742 137.341 87.5296C138.877 88.6496 140.213 89.5751 140.309 89.5862C140.405 89.5974 142.363 88.2558 144.659 86.605V86.605ZM115.164 71.9096C115.164 68.0119 113.672 55.3759 113.211 55.3759C112.675 55.3759 95.2575 62.9839 95.2575 63.2181C95.2575 63.3116 96.0746 63.7251 97.0733 64.1372C99.8086 65.2656 110.161 70.6525 112.545 72.1876C113.697 72.9299 114.758 73.5493 114.902 73.5642C115.046 73.5791 115.164 72.8345 115.164 71.9096V71.9096ZM66.2168 72.698C68.5131 71.2631 78.3081 66.091 81.543 64.6052L85.1159 62.9642L82.94 61.8886C78.3692 59.6294 67.393 55.2829 66.7867 55.4922C66.2957 55.6616 66.1223 56.6085 65.4276 62.9133C64.228 73.8024 64.2386 73.9341 66.2168 72.698V72.698ZM93.4304 59.1865C96.6604 57.7339 106.292 53.8201 110.799 52.1289C113.285 51.1959 113.219 51.8831 111.633 43.4416C108.451 26.5111 103.419 13.7196 97.7887 8.25137C94.9761 5.51948 92.8652 4.50254 90.0189 4.50821C87.5321 4.51318 85.5726 5.32598 83.4558 7.23059C76.8919 13.1366 71.4701 26.5014 68.0651 45.1689C67.0863 50.5348 67.0445 50.9595 67.4652 51.2624C67.6726 51.4116 70.3568 52.5265 73.4301 53.74C76.5034 54.9534 81.4539 57.0074 84.4311 58.3045C87.4084 59.6017 89.8865 60.6746 89.938 60.6889C89.9895 60.7032 91.5611 60.0271 93.4304 59.1865V59.1865Z" fill="#B4B4B4"/>
</svg>
